<?xml version="1.0" encoding="utf-8"?>
<!-- Generator: Adobe Illustrator 19.1.0, SVG Export Plug-In . SVG Version: 6.00 Build 0)  -->
<svg version="1.1" id="Layer_1" xmlns="http://www.w3.org/2000/svg" xmlns:xlink="http://www.w3.org/1999/xlink" x="0px" y="0px"
	 viewBox="-209 300.7 192.3 192.3" style="enable-background:new -209 300.7 192.3 192.3;" xml:space="preserve">
<style type="text/css">
	.st0{fill:#FFBA00;}
</style>
<g>
	<path class="st0" d="M-112.9,300.6c-53.2,0-96.2,43-96.2,96.2c0,53.1,43,96.2,96.2,96.2s96.2-43,96.2-96.2
		C-16.8,343.6-59.8,300.6-112.9,300.6z M-112.9,474.3c-42.8,0-77.6-34.7-77.6-77.6c0-42.8,34.7-77.6,77.6-77.6s77.6,34.7,77.6,77.6
		C-35.4,439.6-70.1,474.3-112.9,474.3z"/>
	<path class="st0" d="M-128.1,433.7v-74c0-4.2,5.1-6.3,8.1-3.3l37,37c1.8,1.8,1.8,4.8,0,6.7l-37,37
		C-123,440.1-128.1,438-128.1,433.7z"/>
</g>
</svg>
