<svg xmlns="http://www.w3.org/2000/svg" xmlns:xlink="http://www.w3.org/1999/xlink" preserveAspectRatio="xMidYMid" width="64" height="68" viewBox="0 0 64 68">
  <defs>
    <style>
      .cls-1, .cls-2 {
        stroke-linecap: round;
        stroke-width: 2px;
        fill: none;
      }

      .cls-1 {
        fill-rule: evenodd;
      }
    </style>
  </defs>
  <g>
    <path d="M26.000,1.000 L33.000,8.000 L26.000,15.000 " class="cls-1"/>
    <path d="M33.000,8.000 C33.000,8.000 1.000,6.798 1.000,37.000 C1.000,64.955 38.000,67.000 38.000,67.000 " class="cls-1"/>
    <circle cx="38" cy="42" r="25" class="cls-2"/>
    <path d="M13.000,42.000 L63.000,42.000 " class="cls-1"/>
    <path d="M38.000,17.000 C44.627,17.000 50.000,28.193 50.000,42.000 C50.000,55.807 44.627,67.000 38.000,67.000 C31.373,67.000 26.000,55.807 26.000,42.000 C26.000,28.193 31.373,17.000 38.000,17.000 Z" class="cls-1"/>
    <path d="M20.000,25.000 C20.000,25.000 28.090,32.000 38.000,32.000 C47.973,32.000 55.000,25.000 55.000,25.000 " class="cls-1"/>
    <path d="M20.030,58.972 C20.030,58.972 28.113,51.996 38.015,51.996 C47.980,51.996 55.001,58.972 55.001,58.972 " class="cls-1"/>
  </g>
</svg>
