<svg xmlns="http://www.w3.org/2000/svg" xmlns:xlink="http://www.w3.org/1999/xlink" preserveAspectRatio="xMidYMid" width="70" height="72" viewBox="0 0 70 72">
  <defs>
    <style>
      .cls-1 {
        stroke-linecap: round;
        stroke-width: 2px;
        fill: none;
        fill-rule: evenodd;
      }
    </style>
  </defs>
  <g>
    <path d="M42.000,54.000 L35.000,39.000 L62.000,29.000 L68.500,41.000 L42.000,54.000 ZM1.500,41.000 L8.000,29.000 L35.000,39.000 L28.000,54.000 L1.500,41.000 Z" class="cls-1"/>
    <path d="M8.000,45.000 L8.000,58.000 L35.000,70.375 L62.000,58.000 L62.000,45.000 " class="cls-1"/>
    <path d="M35.000,70.375 L35.000,40.000 " class="cls-1"/>
    <path d="M9.038,29.000 C9.038,29.000 9.038,28.057 9.038,27.000 C9.038,12.662 20.662,1.038 35.000,1.038 C49.338,1.038 60.961,12.662 60.961,27.000 C60.961,27.526 61.000,29.000 61.000,29.000 " class="cls-1"/>
    <path d="M9.038,27.000 L60.961,27.000 " class="cls-1"/>
    <path d="M23.041,34.323 C22.714,32.001 22.538,29.543 22.538,27.000 C22.538,12.662 28.118,1.038 35.000,1.038 C41.882,1.038 47.461,12.662 47.461,27.000 C47.461,29.420 47.302,31.763 47.005,33.986 " class="cls-1"/>
    <path d="M16.308,9.346 C16.308,9.346 24.709,16.615 35.000,16.615 C45.357,16.615 52.654,9.346 52.654,9.346 " class="cls-1"/>
  </g>
</svg>
