<svg xmlns="http://www.w3.org/2000/svg" xmlns:xlink="http://www.w3.org/1999/xlink" preserveAspectRatio="xMidYMid" width="76" height="50" viewBox="0 0 76 50">
  <defs>
    <style>
      .cls-1 {
        stroke-linecap: round;
        stroke-width: 2px;
        fill: none;
        fill-rule: evenodd;
      }
    </style>
  </defs>
  <g>
    <path d="M1.000,49.000 C5.937,49.000 8.000,46.000 13.000,46.000 C18.000,46.000 21.000,49.000 26.000,49.000 C31.000,49.000 33.000,46.000 38.000,46.000 C43.000,46.000 46.000,49.000 51.000,49.000 C56.000,49.000 57.937,46.000 63.000,46.000 C68.062,46.000 69.937,49.000 75.000,49.000 " class="cls-1"/>
    <path d="M12.000,46.000 L2.000,20.000 L13.000,20.000 L16.000,28.000 L59.000,28.000 L63.000,20.000 L74.000,20.000 L64.000,46.000 " class="cls-1"/>
    <path d="M44.000,28.000 L44.000,15.000 C44.000,14.448 44.448,14.000 45.000,14.000 L57.000,14.000 C57.552,14.000 58.000,14.448 58.000,15.000 L58.000,28.000 L44.000,28.000 ZM25.000,15.000 C25.000,14.448 25.448,14.000 26.000,14.000 L38.000,14.000 C38.552,14.000 39.000,14.448 39.000,15.000 L39.000,28.000 L25.000,28.000 L25.000,15.000 Z" class="cls-1"/>
    <path d="M52.000,37.000 L56.000,37.000 " class="cls-1"/>
    <path d="M6.000,20.000 L6.000,3.000 C6.000,1.895 6.895,1.000 8.000,1.000 L32.000,1.000 C33.105,1.000 34.000,1.895 34.000,3.000 L34.000,14.000 " class="cls-1"/>
  </g>
</svg>
