<svg xmlns="http://www.w3.org/2000/svg" xmlns:xlink="http://www.w3.org/1999/xlink" preserveAspectRatio="xMidYMid" width="52" height="67" viewBox="0 0 52 67">
  <defs>
    <style>
      .cls-1 {
        stroke-linecap: round;
        stroke-width: 2px;
        fill: none;
        fill-rule: evenodd;
      }
    </style>
  </defs>
  <g>
    <path d="M6.000,45.000 L5.000,45.000 C2.791,45.000 1.000,43.209 1.000,41.000 L1.000,5.000 C1.000,2.791 2.791,1.000 5.000,1.000 L47.000,1.000 C49.209,1.000 51.000,2.791 51.000,5.000 L51.000,41.000 C51.000,43.209 49.209,45.000 47.000,45.000 L46.000,45.000 " class="cls-1"/>
    <path d="M6.000,51.000 L6.000,17.000 C6.000,16.448 6.448,16.000 7.000,16.000 L45.000,16.000 C45.552,16.000 46.000,16.448 46.000,17.000 L46.000,51.000 " class="cls-1"/>
    <path d="M4.000,51.000 L48.000,51.000 C48.552,51.000 49.000,51.448 49.000,52.000 L49.000,56.000 C49.000,56.552 48.552,57.000 48.000,57.000 L4.000,57.000 C3.448,57.000 3.000,56.552 3.000,56.000 L3.000,52.000 C3.000,51.448 3.448,51.000 4.000,51.000 Z" class="cls-1"/>
    <path d="M44.000,66.000 L39.000,66.000 C38.448,66.000 38.000,65.552 38.000,65.000 L38.000,57.000 L45.000,57.000 L45.000,65.000 C45.000,65.552 44.552,66.000 44.000,66.000 ZM13.000,66.000 L8.000,66.000 C7.448,66.000 7.000,65.552 7.000,65.000 L7.000,57.000 L14.000,57.000 L14.000,65.000 C14.000,65.552 13.552,66.000 13.000,66.000 Z" class="cls-1"/>
    <path d="M6.000,34.000 L46.000,34.000 " class="cls-1"/>
    <path d="M38.500,45.000 C37.119,45.000 36.000,43.881 36.000,42.500 C36.000,41.119 37.119,40.000 38.500,40.000 C39.881,40.000 41.000,41.119 41.000,42.500 C41.000,43.881 39.881,45.000 38.500,45.000 ZM13.500,45.000 C12.119,45.000 11.000,43.881 11.000,42.500 C11.000,41.119 12.119,40.000 13.500,40.000 C14.881,40.000 16.000,41.119 16.000,42.500 C16.000,43.881 14.881,45.000 13.500,45.000 Z" class="cls-1"/>
  </g>
</svg>
