<svg xmlns="http://www.w3.org/2000/svg" xmlns:xlink="http://www.w3.org/1999/xlink" preserveAspectRatio="xMidYMid" width="74" height="51" viewBox="0 0 74 51">
  <defs>
    <style>
      .cls-1 {
        stroke-linecap: round;
        stroke-width: 2px;
        fill: none;
        fill-rule: evenodd;
      }
    </style>
  </defs>
  <g>
    <path d="M60.500,50.000 C55.806,50.000 52.000,46.194 52.000,41.500 C52.000,36.806 55.806,33.000 60.500,33.000 C65.194,33.000 69.000,36.806 69.000,41.500 C69.000,46.194 65.194,50.000 60.500,50.000 ZM17.500,50.000 C12.806,50.000 9.000,46.194 9.000,41.500 C9.000,36.806 12.806,33.000 17.500,33.000 C22.194,33.000 26.000,36.806 26.000,41.500 C26.000,46.194 22.194,50.000 17.500,50.000 Z" class="cls-1"/>
    <path d="M8.719,41.000 C4.697,41.000 2.000,41.000 2.000,41.000 C1.448,41.000 1.000,40.552 1.000,40.000 L1.000,2.000 C1.000,1.448 1.448,1.000 2.000,1.000 L48.000,1.000 C48.552,1.000 49.000,1.448 49.000,2.000 L49.000,41.000 C49.000,41.000 37.643,41.000 26.094,41.000 " class="cls-1"/>
    <path d="M51.992,41.000 C50.180,41.000 49.000,41.000 49.000,41.000 L49.000,24.000 L71.000,24.000 C72.105,24.000 73.000,24.895 73.000,26.000 L73.000,39.000 C73.000,40.104 72.105,41.000 71.000,41.000 C71.000,41.000 70.116,41.000 69.000,41.000 " class="cls-1"/>
    <path d="M49.000,11.000 L57.000,11.000 C57.000,11.000 60.285,11.147 62.000,13.000 C63.715,14.853 69.778,20.740 71.000,22.000 C72.222,23.260 73.000,24.309 73.000,27.000 " class="cls-1"/>
  </g>
</svg>
