<svg xmlns="http://www.w3.org/2000/svg" xmlns:xlink="http://www.w3.org/1999/xlink" preserveAspectRatio="xMidYMid" width="68" height="67" viewBox="0 0 68 67">
  <defs>
    <style>
      .cls-1 {
        stroke-linecap: round;
        stroke-width: 2px;
        fill: none;
        fill-rule: evenodd;
      }
    </style>
  </defs>
  <g>
    <path d="M44.966,14.087 C50.985,17.780 55.000,24.421 55.000,32.000 M42.976,50.990 C40.255,52.279 37.212,53.000 34.000,53.000 C30.795,53.000 27.758,52.282 25.041,50.999 M13.000,32.000 C13.000,24.414 17.022,17.768 23.050,14.077 " class="cls-1"/>
    <path d="M58.000,55.000 C58.341,57.861 60.000,58.000 60.000,58.000 C60.000,58.000 67.000,59.006 67.000,63.000 L67.000,65.000 C67.000,65.552 66.552,66.000 66.000,66.000 L42.000,66.000 C41.448,66.000 41.000,65.552 41.000,65.000 L41.000,63.000 C41.000,59.521 48.000,58.000 48.000,58.000 C48.000,58.000 49.698,57.821 50.000,55.000 " class="cls-1"/>
    <path d="M60.916,45.022 C60.971,45.504 61.000,45.997 61.000,46.500 C61.000,51.747 57.866,56.000 54.000,56.000 C50.134,56.000 47.000,51.747 47.000,46.500 C47.000,45.787 47.058,45.093 47.168,44.425 " class="cls-1"/>
    <path d="M46.313,41.000 C46.313,43.665 47.000,45.000 47.000,45.000 C47.000,45.000 47.177,43.000 49.000,43.000 C60.535,43.000 61.000,46.000 61.000,46.000 C61.000,46.000 61.500,43.239 61.500,42.000 C61.500,37.992 61.000,37.000 61.000,37.000 C61.000,37.000 59.906,37.250 59.000,37.250 C58.094,37.250 56.312,36.000 53.000,36.000 C49.687,36.000 46.313,38.335 46.313,41.000 Z" class="cls-1"/>
    <path d="M60.000,58.000 C60.000,60.209 57.314,62.000 54.000,62.000 C50.686,62.000 48.000,60.209 48.000,58.000 " class="cls-1"/>
    <path d="M18.000,55.000 C18.341,57.861 20.000,58.000 20.000,58.000 C20.000,58.000 27.000,59.006 27.000,63.000 L27.000,65.000 C27.000,65.552 26.552,66.000 26.000,66.000 L2.000,66.000 C1.448,66.000 1.000,65.552 1.000,65.000 L1.000,63.000 C1.000,59.521 8.000,58.000 8.000,58.000 C8.000,58.000 9.698,57.821 10.000,55.000 " class="cls-1"/>
    <path d="M20.916,45.022 C20.971,45.504 21.000,45.997 21.000,46.500 C21.000,51.747 17.866,56.000 14.000,56.000 C10.134,56.000 7.000,51.747 7.000,46.500 C7.000,45.787 7.058,45.093 7.168,44.425 " class="cls-1"/>
    <path d="M6.313,41.000 C6.313,43.665 7.000,45.000 7.000,45.000 C7.000,45.000 7.177,43.000 9.000,43.000 C20.535,43.000 21.000,46.000 21.000,46.000 C21.000,46.000 21.500,43.239 21.500,42.000 C21.500,37.992 21.000,37.000 21.000,37.000 C21.000,37.000 19.906,37.250 19.000,37.250 C18.094,37.250 16.312,36.000 13.000,36.000 C9.687,36.000 6.313,38.335 6.313,41.000 Z" class="cls-1"/>
    <path d="M20.000,58.000 C20.000,60.209 17.314,62.000 14.000,62.000 C10.686,62.000 8.000,60.209 8.000,58.000 " class="cls-1"/>
    <path d="M38.000,20.000 C38.341,22.861 40.000,23.000 40.000,23.000 C40.000,23.000 47.000,24.006 47.000,28.000 L47.000,30.000 C47.000,30.552 46.552,31.000 46.000,31.000 L22.000,31.000 C21.448,31.000 21.000,30.552 21.000,30.000 L21.000,28.000 C21.000,24.521 28.000,23.000 28.000,23.000 C28.000,23.000 29.698,22.821 30.000,20.000 " class="cls-1"/>
    <path d="M40.916,10.022 C40.971,10.504 41.000,10.997 41.000,11.500 C41.000,16.747 37.866,21.000 34.000,21.000 C30.134,21.000 27.000,16.747 27.000,11.500 C27.000,10.787 27.058,10.093 27.168,9.425 " class="cls-1"/>
    <path d="M26.313,6.000 C26.313,8.665 27.000,10.000 27.000,10.000 C27.000,10.000 27.177,8.000 29.000,8.000 C40.535,8.000 41.000,11.000 41.000,11.000 C41.000,11.000 41.500,8.239 41.500,7.000 C41.500,2.992 41.000,2.000 41.000,2.000 C41.000,2.000 39.906,2.250 39.000,2.250 C38.094,2.250 36.312,1.000 33.000,1.000 C29.687,1.000 26.313,3.335 26.313,6.000 Z" class="cls-1"/>
    <path d="M40.000,23.000 C40.000,25.209 37.314,27.000 34.000,27.000 C30.686,27.000 28.000,25.209 28.000,23.000 " class="cls-1"/>
  </g>
</svg>
