<svg xmlns="http://www.w3.org/2000/svg" xmlns:xlink="http://www.w3.org/1999/xlink" preserveAspectRatio="xMidYMid" width="73" height="64" viewBox="0 0 73 64">
  <defs>
    <style>
      .cls-1 {
        stroke-linecap: round;
        stroke-width: 2px;
        fill: none;
        fill-rule: evenodd;
      }
    </style>
  </defs>
  <g>
    <path d="M41.500,63.000 C37.358,63.000 34.000,59.642 34.000,55.500 C34.000,51.358 37.358,48.000 41.500,48.000 C45.642,48.000 49.000,51.358 49.000,55.500 C49.000,59.642 45.642,63.000 41.500,63.000 ZM11.500,63.000 C7.358,63.000 4.000,59.642 4.000,55.500 C4.000,51.358 7.358,48.000 11.500,48.000 C15.642,48.000 19.000,51.358 19.000,55.500 C19.000,59.642 15.642,63.000 11.500,63.000 Z" class="cls-1"/>
    <path d="M45.406,32.000 L51.000,32.000 C51.552,32.000 52.000,32.448 52.000,33.000 L54.000,54.000 C54.000,54.552 53.552,55.000 53.000,55.000 C53.000,55.000 51.569,55.000 49.187,55.000 M33.812,55.000 C28.870,55.000 23.591,55.000 18.781,55.000 M4.125,55.000 C2.772,55.000 2.000,55.000 2.000,55.000 C1.448,55.000 1.000,54.552 1.000,54.000 L3.000,27.000 C3.000,26.448 3.448,26.000 4.000,26.000 L11.000,26.000 " class="cls-1"/>
    <path d="M12.000,1.000 L38.000,1.000 C38.552,1.000 39.000,1.448 39.000,2.000 L46.500,39.000 C46.500,39.552 46.052,40.000 45.500,40.000 L12.000,40.000 C11.448,40.000 11.000,39.552 11.000,39.000 L11.000,2.000 C11.000,1.448 11.448,1.000 12.000,1.000 Z" class="cls-1"/>
    <path d="M55.531,3.031 L60.031,60.500 L71.125,59.812 " class="cls-1"/>
  </g>
</svg>
